<svg xmlns="http://www.w3.org/2000/svg" version="1.1" xmlns:xlink="http://www.w3.org/1999/xlink" xmlns:svgjs="http://svgjs.com/svgjs" width="1440" height="560" preserveAspectRatio="none" viewBox="0 0 1440 560"><g mask="url(&quot;#SvgjsMask1002&quot;)" fill="none"><rect width="1440" height="560" x="0" y="0" fill="url(#SvgjsLinearGradient1003)"></rect><path d="M1440 0L854.94 0L1440 220.26z" fill="rgba(255, 255, 255, .1)"></path><path d="M854.94 0L1440 220.26L1440 394.69L600.9200000000001 0z" fill="rgba(255, 255, 255, .075)"></path><path d="M600.9200000000001 0L1440 394.69L1440 395.82L486.80000000000007 0z" fill="rgba(255, 255, 255, .05)"></path><path d="M486.80000000000007 0L1440 395.82L1440 493.09L238.55000000000007 0z" fill="rgba(255, 255, 255, .025)"></path><path d="M0 560L240.52 560L0 451.79z" fill="rgba(0, 0, 0, .1)"></path><path d="M0 451.79L240.52 560L560.82 560L0 431.71000000000004z" fill="rgba(0, 0, 0, .075)"></path><path d="M0 431.71000000000004L560.82 560L959.2900000000001 560L0 329.14000000000004z" fill="rgba(0, 0, 0, .05)"></path><path d="M0 329.14L959.2900000000001 560L1222.0100000000002 560L0 263.48z" fill="rgba(0, 0, 0, .025)"></path></g><defs><mask id="SvgjsMask1002"><rect width="1440" height="560" fill="#ffffff"></rect></mask><linearGradient x1="15.28%" y1="-39.29%" x2="84.72%" y2="139.29%" gradientUnits="userSpaceOnUse" id="SvgjsLinearGradient1003"><stop stop-color="#0e2a47" offset="0"></stop><stop stop-color="#00459e" offset="1"></stop></linearGradient></defs></svg>